<?xml version="1.0" encoding="UTF-8"?>
<svg id="artwork" xmlns="http://www.w3.org/2000/svg" xmlns:xlink="http://www.w3.org/1999/xlink" version="1.1" viewBox="0 0 1080 875">
  <!-- Generator: Adobe Illustrator 30.0.0, SVG Export Plug-In . SVG Version: 2.1.1 Build 123)  -->
  <defs>
    <style>
      .st0 {
        fill: url(#linear-gradient8);
      }

      .st1 {
        fill: url(#linear-gradient7);
      }

      .st2, .st3 {
        fill: #fff;
      }

      .st4, .st3 {
        opacity: .3;
      }

      .st5 {
        fill: url(#linear-gradient);
      }

      .st5, .st6, .st7, .st8, .st9, .st10, .st11 {
        fill-rule: evenodd;
      }

      .st6 {
        fill: url(#linear-gradient1);
      }

      .st7 {
        fill: url(#linear-gradient2);
      }

      .st8 {
        fill: url(#linear-gradient4);
      }

      .st9 {
        fill: url(#linear-gradient5);
      }

      .st10 {
        fill: url(#linear-gradient3);
      }

      .st11 {
        fill: url(#linear-gradient6);
      }

      .st3 {
        isolation: isolate;
      }
    </style>
    <linearGradient id="linear-gradient" x1="-7.4" y1="86.7" x2="1075.7" y2="86.7" gradientTransform="translate(0 876) scale(1 -1)" gradientUnits="userSpaceOnUse">
      <stop offset="0" stop-color="#81c786"/>
      <stop offset=".5" stop-color="#eee234"/>
      <stop offset="1" stop-color="#a93e88"/>
    </linearGradient>
    <linearGradient id="linear-gradient1" x1="-7.4" y1="115.9" x2="1075.7" y2="115.9" gradientTransform="translate(0 876) scale(1 -1)" gradientUnits="userSpaceOnUse">
      <stop offset="0" stop-color="#81c786"/>
      <stop offset=".5" stop-color="#eee234"/>
      <stop offset="1" stop-color="#a93e88"/>
    </linearGradient>
    <linearGradient id="linear-gradient2" x1="-7.4" y1="115.9" x2="1075.7" y2="115.9" gradientTransform="translate(0 876) scale(1 -1)" gradientUnits="userSpaceOnUse">
      <stop offset="0" stop-color="#81c786"/>
      <stop offset=".5" stop-color="#eee234"/>
      <stop offset="1" stop-color="#a93e88"/>
    </linearGradient>
    <linearGradient id="linear-gradient3" x1="-7.4" y1="86.7" x2="1075.7" y2="86.7" gradientTransform="translate(0 876) scale(1 -1)" gradientUnits="userSpaceOnUse">
      <stop offset="0" stop-color="#81c786"/>
      <stop offset=".5" stop-color="#eee234"/>
      <stop offset="1" stop-color="#a93e88"/>
    </linearGradient>
    <linearGradient id="linear-gradient4" x1="-7.4" y1="115.9" x2="1075.7" y2="115.9" gradientTransform="translate(0 876) scale(1 -1)" gradientUnits="userSpaceOnUse">
      <stop offset="0" stop-color="#81c786"/>
      <stop offset=".5" stop-color="#eee234"/>
      <stop offset="1" stop-color="#a93e88"/>
    </linearGradient>
    <linearGradient id="linear-gradient5" x1="-7.4" y1="86.7" x2="1075.7" y2="86.7" gradientTransform="translate(0 876) scale(1 -1)" gradientUnits="userSpaceOnUse">
      <stop offset="0" stop-color="#81c786"/>
      <stop offset=".5" stop-color="#eee234"/>
      <stop offset="1" stop-color="#a93e88"/>
    </linearGradient>
    <linearGradient id="linear-gradient6" x1="-7.4" y1="115.9" x2="1075.7" y2="115.9" gradientTransform="translate(0 876) scale(1 -1)" gradientUnits="userSpaceOnUse">
      <stop offset="0" stop-color="#81c786"/>
      <stop offset=".5" stop-color="#eee234"/>
      <stop offset="1" stop-color="#a93e88"/>
    </linearGradient>
    <linearGradient id="linear-gradient7" x1="220.8" y1="808.4" x2="634.2" y2="395" gradientTransform="translate(0 876) scale(1 -1)" gradientUnits="userSpaceOnUse">
      <stop offset="0" stop-color="#81c786"/>
      <stop offset=".5" stop-color="#eee234"/>
      <stop offset="1" stop-color="#a93e88"/>
    </linearGradient>
    <linearGradient id="linear-gradient8" x1="266.1" y1="853.8" x2="679.6" y2="440.4" gradientTransform="translate(0 876) scale(1 -1)" gradientUnits="userSpaceOnUse">
      <stop offset="0" stop-color="#81c786"/>
      <stop offset=".5" stop-color="#eee234"/>
      <stop offset="1" stop-color="#a93e88"/>
    </linearGradient>
  </defs>
  <g>
    <g>
      <polygon class="st5" points="269.2 789.3 269.2 716.3 351.6 716.3 413.5 716.3 413.5 730.9 413.5 745.5 423.8 745.5 434.1 745.5 434.1 803.9 434.1 862.3 413.5 862.3 392.9 862.3 392.9 803.9 392.9 745.5 382.5 745.5 372.2 745.5 372.2 803.9 372.2 862.3 351.6 862.3 330.9 862.3 330.9 803.9 330.9 745.5 320.6 745.5 310.3 745.5 310.3 803.9 310.3 862.3 279.5 862.3 269.2 862.3 269.2 789.3"/>
      <polygon class="st6" points="941.2 672.5 941.2 658 1003.1 658 1065 658 1065 672.5 1065 687.2 1044.4 687.2 1023.7 687.2 1023.7 760.1 1023.7 833.1 1044.4 833.1 1065 833.1 1065 847.7 1065 862.3 1003.1 862.3 941.2 862.3 941.2 847.7 941.2 833.1 961.8 833.1 982.4 833.1 982.4 760.1 982.4 687.2 961.8 687.2 941.2 687.2 941.2 672.5"/>
      <polygon class="st7" points="778.3 745.5 778.3 658 798.9 658 819.6 658 819.6 745.5 819.6 833.1 850.5 833.1 881.5 833.1 881.5 745.5 881.5 658 902.1 658 922.8 658 922.8 745.5 922.8 833.1 912.4 833.1 902.1 833.1 902.1 847.7 902.1 862.3 850.5 862.3 798.9 862.3 798.9 847.7 798.9 833.1 788.6 833.1 778.3 833.1 778.3 745.5"/>
      <path class="st10" d="M749.6,745.5h-10.3v-29.2h-103.2v29.2h-20.6v87.6h20.6v29.2h103.2v-29.2h20.6v-87.6h-10.3ZM718.6,789.3v43.8h-61.9v-87.6h61.9v43.8h0Z"/>
      <path class="st8" d="M586.7,745.5h-10.3v-29.2h-82.6v-58.4h-41.3v175.1h20.6v29.2h103.2v-29.2h20.6v-87.6h-10.3ZM555.7,789.3v43.8h-61.9v-87.6h61.9v43.8h0Z"/>
      <path class="st9" d="M240.5,745.5h-10.3v-29.2h-103.2v29.2h82.6v29.2h-82.6v29.2h-20.6v29.2h20.6v29.2h123.8v-116.8h-10.3ZM209.5,818.5v14.6h-61.9v-29.2h61.9v14.6h0Z"/>
      <polygon class="st11" points="5 672.5 5 658 66.9 658 128.8 658 128.8 672.5 128.8 687.2 108.2 687.2 87.6 687.2 87.6 774.7 87.6 862.3 66.9 862.3 46.3 862.3 46.3 774.7 46.3 687.2 25.6 687.2 5 687.2 5 672.5"/>
    </g>
    <g class="st4">
      <path class="st2" d="M411.1,718.8v29.2h20.6v112h-36.5v-116.8h-25.5v116.8h-36.5v-116.8h-25.5v116.8h-36.3v-141.1h139.5M413.5,716.3h-144.3v146h41.1v-116.8h20.6v116.8h41.3v-116.8h20.6v116.8h41.3v-116.8h-20.6v-29.2h0Z"/>
      <path class="st2" d="M1062.6,660.4v24.4h-41.3v150.8h41.3v24.4h-119v-24.4h41.3v-150.8h-41.3v-24.4h119M1065,658h-123.8v29.2h41.3v146h-41.3v29.2h123.8v-29.2h-41.3v-146h41.3v-29.2h0Z"/>
      <path class="st2" d="M920.4,660.4v170.3h-20.6v29.2h-98.4v-29.2h-20.6v-170.3h36.5v175.2h66.7v-175.2h36.5M922.8,658h-41.3v175.1h-61.9v-175.2h-41.3v175.2h20.6v29.2h103.2v-29.2h20.6v-175.2h0Z"/>
      <path class="st2" d="M736.8,718.8v29.2h20.6v82.8h-20.6v29.2h-98.4v-29.2h-20.6v-82.8h20.6v-29.2h98.4M654.3,835.5h66.7v-92.4h-66.7v92.4M739.2,716.3h-103.2v29.2h-20.6v87.6h20.6v29.2h103.2v-29.2h20.6v-87.6h-20.6v-29.2h0ZM656.7,833.1v-87.6h61.9v87.6h-61.9Z"/>
      <path class="st2" d="M491.4,660.4v58.4h82.6v29.2h20.6v82.8h-20.6v29.2h-98.4v-29.2h-20.6v-170.3h36.5M491.4,835.5h66.7v-92.4h-66.7v92.4M493.8,658h-41.3v175.1h20.6v29.2h103.2v-29.2h20.6v-87.6h-20.6v-29.2h-82.6v-58.4h0ZM493.8,833.1v-87.6h61.9v87.6h-61.9Z"/>
      <path class="st2" d="M227.8,718.8v29.2h20.6v112h-119v-29.2h-20.6v-24.4h20.6v-29.2h82.6v-34h-82.6v-24.4h98.4M145.2,835.5h66.7v-34h-66.7v34M230.2,716.3h-103.2v29.2h82.6v29.2h-82.6v29.2h-20.6v29.2h20.6v29.2h123.8v-116.8h-20.6v-29.2h0ZM147.6,833.1v-29.2h61.9v29.2h-61.9Z"/>
      <path class="st2" d="M126.4,660.4v24.4h-41.3v175.2h-36.5v-175.2H7.4v-24.4h119M128.8,658H5v29.2h41.3v175.2h41.3v-175.2h41.3v-29.2h0Z"/>
    </g>
  </g>
  <g>
    <g>
      <path class="st1" d="M549.3,256.5l-141.2-141.2c-9.2-9.2-24-9.2-33.2,0l-28.9,29c-9.2,9.2-9.1,24,0,33.2l79.1,79.1c9.2,9.2,9.2,24,0,33.2l-79.1,79.1c-9.2,9.2-9.2,24,0,33.2l28.9,28.9c9.2,9.2,24,9.2,33.2,0l31.1-31.1c9.6-9.6,25.9-2.8,25.9,10.7v20c0,13,10.5,23.5,23.5,23.5h214c13,0,23.5-10.5,23.5-23.5v-57.2c0-13-10.5-23.5-23.5-23.5h-177.2c-13.4,0-20.1-16.2-10.6-25.6l34.6-34.6c9.2-9.2,9.2-24,0-33.2h0Z"/>
      <path class="st0" d="M535,45.3c62.3,0,125.6,2.9,187.9,8.7,11.3,1.1,22.7,4.3,33.6,9.8,10.3,5.1,19.9,11.9,28.8,20.3h0c8.8,8.5,16.1,17.9,21.6,28,5.9,10.8,9.7,22.1,11.1,33.4,6.1,48.3,9.2,97.2,9.2,145.5s-3.1,97.2-9.2,145.5c-1.5,11.4-5.2,22.6-11.1,33.5-5.5,10.1-12.8,19.5-21.6,28h0c-8.8,8.4-18.5,15.3-28.8,20.4-11,5.4-22.2,8.7-33.6,9.8-62.3,5.8-125.5,8.7-187.9,8.7s-125.6-2.9-187.9-8.7c-11.3-1.1-22.6-4.3-33.6-9.8-10.3-5.1-20-11.9-28.8-20.3h0s0,0,0,0c-8.8-8.5-16.1-17.9-21.6-28-5.9-10.8-9.7-22.1-11.1-33.5-6.1-48.3-9.2-97.2-9.2-145.5s3.1-97.2,9.2-145.5c1.4-11.4,5.2-22.6,11.1-33.4,5.5-10.1,12.8-19.5,21.6-27.9h0c8.8-8.4,18.5-15.3,28.8-20.4,11-5.4,22.2-8.7,33.6-9.8,62.3-5.8,125.5-8.7,187.9-8.7h0ZM535,5c-63.6,0-128,3-191.6,8.9-16.3,1.5-32.4,6.1-47.8,13.8-14,6.9-27,16.1-38.7,27.3h0s0,0,0,0c-11.8,11.3-21.6,24-29.1,37.7-8.4,15.3-13.7,31.3-15.8,47.8-6.3,49.9-9.6,100.6-9.6,150.6s3.2,100.6,9.6,150.5c2.1,16.4,7.4,32.5,15.8,47.8,7.5,13.7,17.3,26.4,29.1,37.7h0s0,0,0,0c11.8,11.2,24.8,20.4,38.7,27.3,15.4,7.6,31.5,12.3,47.8,13.8,63.6,5.9,128,8.9,191.6,8.9s128-3,191.6-8.9c16.3-1.5,32.4-6.2,47.8-13.8,14-6.9,27-16.1,38.7-27.3h0s0,0,0,0c11.8-11.3,21.6-24,29.1-37.7,8.4-15.3,13.7-31.3,15.8-47.8,6.3-49.9,9.5-100.6,9.5-150.5s-3.2-100.6-9.5-150.6c-2.1-16.4-7.4-32.5-15.8-47.8-7.5-13.7-17.3-26.4-29.1-37.7h0s0,0,0,0c-11.8-11.2-24.8-20.4-38.7-27.3-15.4-7.6-31.5-12.3-47.8-13.8-63.6-5.9-128.1-8.9-191.6-8.9h0Z"/>
    </g>
    <path class="st3" d="M391.5,110.8c5.6,0,10.9,2.2,14.9,6.2l141.3,141.2c4,4,6.2,9.3,6.2,14.9s-2.2,10.9-6.2,14.9l-34.6,34.6c-5.1,5.1-6.5,12.3-3.8,19,2.7,6.6,8.9,10.8,16.1,10.8h177.2c11.6,0,21.1,9.5,21.1,21.1v57.2c0,11.6-9.5,21.1-21.1,21.1h-214c-11.6,0-21.1-9.5-21.1-21.1v-20c0-11-9-17.6-17.7-17.6s-9,1.8-12.3,5.2l-31.1,31.1c-4,4-9.3,6.2-14.9,6.2s-10.9-2.2-14.9-6.2l-28.9-28.9c-8.2-8.2-8.2-21.6,0-29.8l79.1-79.1c4.9-4.9,7.6-11.4,7.6-18.3s-2.7-13.4-7.6-18.3l-79.1-79.1c-8.2-8.2-8.2-21.6,0-29.8l28.9-29c4-4,9.3-6.2,14.9-6.2M391.5,108.4c-6,0-12,2.3-16.6,6.9l-28.9,29c-9.2,9.2-9.1,24,0,33.2l79.1,79.1c9.2,9.2,9.2,24,0,33.2l-79.1,79.1c-9.2,9.2-9.2,24,0,33.2l28.9,28.9c4.6,4.6,10.6,6.9,16.6,6.9s12-2.3,16.6-6.9l31.1-31.1c3.1-3.1,6.9-4.5,10.6-4.5,7.8,0,15.3,6.1,15.3,15.2v20c0,13,10.5,23.5,23.5,23.5h214c13,0,23.5-10.5,23.5-23.5v-57.2c0-13-10.5-23.5-23.5-23.5h-177.2c-13.4,0-20.1-16.2-10.6-25.6l34.6-34.6c9.2-9.2,9.2-24,0-33.2l-141.2-141.2c-4.6-4.6-10.6-6.9-16.6-6.9h0Z"/>
    <path class="st3" d="M535,7.4c63.5,0,127.9,3,191.4,8.9,16,1.5,31.8,6,46.9,13.5,13.7,6.8,26.6,15.8,38.1,26.9h0s0,0,0,0c11.6,11.1,21.3,23.6,28.7,37.1,8.2,15,13.4,30.8,15.5,46.9,6.3,49.8,9.5,100.4,9.5,150.2s-3.2,100.4-9.5,150.2c-2,16.1-7.2,31.9-15.5,46.9-7.4,13.5-17,26-28.7,37.1h0s0,0,0,0c-11.6,11-24.4,20.1-38.1,26.9-15.1,7.5-30.9,12-46.9,13.5-63.5,5.9-127.9,8.9-191.4,8.9s-127.9-3-191.4-8.9c-16-1.5-31.8-6-46.9-13.5-13.7-6.8-26.6-15.8-38.1-26.9h0s0,0,0,0c-11.6-11.1-21.3-23.6-28.7-37.1-8.2-15-13.4-30.8-15.5-46.9-6.3-49.8-9.5-100.4-9.5-150.2s3.2-100.4,9.5-150.2c2.1-16.1,7.2-31.9,15.5-46.9,7.4-13.5,17-26,28.7-37.1h0c11.6-11.1,24.4-20.2,38.1-27,15.1-7.5,30.9-12,46.9-13.5,63.5-5.9,127.9-8.9,191.4-8.9M535,5c-63.6,0-128,3-191.6,8.9-16.3,1.5-32.4,6.1-47.8,13.8-14,6.9-27,16.1-38.7,27.3h0s0,0,0,0c-11.8,11.3-21.6,24-29.1,37.7-8.4,15.3-13.7,31.3-15.8,47.8-6.3,49.9-9.6,100.6-9.6,150.6s3.2,100.6,9.6,150.5c2.1,16.4,7.4,32.5,15.8,47.8,7.5,13.7,17.3,26.4,29.1,37.7h0s0,0,0,0c11.8,11.2,24.8,20.4,38.7,27.3,15.4,7.6,31.5,12.3,47.8,13.8,63.6,5.9,128,8.9,191.6,8.9s128-3,191.6-8.9c16.3-1.5,32.4-6.2,47.8-13.8,14-6.9,27-16.1,38.7-27.3h0s0,0,0,0c11.8-11.3,21.6-24,29.1-37.7,8.4-15.3,13.7-31.3,15.8-47.8,6.3-49.9,9.5-100.6,9.5-150.5s-3.2-100.6-9.5-150.6c-2.1-16.4-7.4-32.5-15.8-47.8-7.5-13.7-17.3-26.4-29.1-37.7h0s0,0,0,0c-11.8-11.2-24.8-20.4-38.7-27.3-15.4-7.6-31.5-12.3-47.8-13.8-63.6-5.9-128.1-8.9-191.6-8.9h0Z"/>
    <path class="st3" d="M535,45.3c62.3,0,125.6,2.9,187.9,8.7,11.3,1.1,22.7,4.3,33.6,9.8,10.3,5.1,19.9,11.9,28.8,20.3h0c8.8,8.5,16.1,17.9,21.6,28,5.9,10.8,9.7,22.1,11.1,33.4,6.1,48.3,9.2,97.2,9.2,145.5s-3.1,97.2-9.2,145.5c-1.5,11.4-5.2,22.6-11.1,33.5-5.5,10.1-12.8,19.5-21.6,28h0c-8.8,8.4-18.5,15.3-28.8,20.4-11,5.4-22.2,8.7-33.6,9.8-62.3,5.8-125.5,8.7-187.9,8.7s-125.6-2.9-187.9-8.7c-11.3-1.1-22.6-4.3-33.6-9.8-10.3-5.1-20-11.9-28.8-20.3h0s0,0,0,0c-8.8-8.5-16.1-17.9-21.6-28-5.9-10.8-9.7-22.1-11.1-33.5-6.1-48.3-9.2-97.2-9.2-145.5s3.1-97.2,9.2-145.5c1.4-11.4,5.2-22.6,11.1-33.4,5.5-10.1,12.8-19.5,21.6-27.9h0c8.8-8.4,18.5-15.3,28.8-20.4,11-5.4,22.2-8.7,33.6-9.8,62.3-5.8,125.5-8.7,187.9-8.7M535,42.9c-62.4,0-125.7,2.9-188.1,8.7-11.6,1.1-23.2,4.5-34.4,10-10.5,5.2-20.4,12.2-29.4,20.8-9,8.7-16.5,18.3-22.1,28.6-6.1,11.1-9.9,22.6-11.4,34.3-6.1,48.4-9.2,97.4-9.2,145.8s3.1,97.4,9.2,145.8c1.5,11.7,5.3,23.2,11.4,34.3,5.6,10.3,13.1,19.9,22.1,28.5l1.7-1.7-1.7,1.7c9,8.6,18.9,15.6,29.4,20.7,11.2,5.5,22.8,8.9,34.4,10,62.4,5.8,125.7,8.7,188.1,8.7s125.7-2.9,188.1-8.7c11.6-1.1,23.2-4.5,34.4-10,10.5-5.2,20.4-12.2,29.4-20.8h0c9-8.7,16.4-18.2,22.1-28.6,6.1-11.1,9.9-22.6,11.4-34.3,6.1-48.4,9.2-97.4,9.2-145.8s-3.1-97.4-9.2-145.8c-1.5-11.7-5.3-23.2-11.4-34.3-5.7-10.3-13.1-19.9-22.1-28.5h0c-9-8.6-18.9-15.6-29.4-20.8-11.2-5.5-22.8-8.9-34.4-10-62.4-5.8-125.7-8.7-188.1-8.7h0Z"/>
  </g>
</svg>